<svg width="17" height="42" viewBox="0 0 17 42" fill="none" xmlns="http://www.w3.org/2000/svg">
<path d="M5 1.29163C5 0.938398 5.26153 0.640939 5.6093 0.579001C6.59296 0.403808 7.24128 0.199951 8.5 0.199951C9.75872 0.199951 10.407 0.403808 11.3907 0.579001C11.7385 0.640939 12 0.938398 12 1.29163V1.29163C12 1.71929 11.6225 2.04865 11.2023 1.96942C10.3199 1.80309 9.67663 1.62495 8.5 1.62495C7.32337 1.62495 6.68011 1.80309 5.79772 1.96942C5.37746 2.04865 5 1.71929 5 1.29163V1.29163Z" fill="#2E2867"/>
<path d="M6 3.50542C6 3.18392 6.23098 2.91025 6.54306 2.833C7.18721 2.67355 7.64771 2.5 8.5 2.5C9.35229 2.5 9.81279 2.67355 10.4569 2.833C10.769 2.91025 11 3.18392 11 3.50542V3.50542C11 3.91942 10.6257 4.22905 10.2254 4.12357C9.69294 3.98329 9.24693 3.85 8.5 3.85C7.75307 3.85 7.30706 3.98329 6.77463 4.12357C6.37429 4.22905 6 3.91942 6 3.50542V3.50542Z" fill="#2E2867"/>
<path d="M-9.15527e-05 13C-9.15527e-05 8.58172 3.58163 5 7.99991 5H8.99991C13.4182 5 16.9999 8.58172 16.9999 13V36C16.9999 39.3137 14.3136 42 10.9999 42H5.99991C2.6862 42 -9.15527e-05 39.3137 -9.15527e-05 36V13Z" fill="#2E2867"/>
<path d="M7.36501 29.9012L7.36543 31.1897C7.36569 31.2837 7.34367 31.3764 7.30117 31.4603C7.25866 31.5442 7.19689 31.6168 7.12091 31.6721C7.04493 31.7275 6.95691 31.7641 6.86406 31.7789C6.77121 31.7936 6.67619 31.7862 6.58677 31.7572C5.74518 31.4606 4.98079 30.9791 4.34983 30.3481C3.71886 29.7172 3.23738 28.9528 2.94079 28.1112C2.91176 28.0218 2.90433 27.9268 2.91911 27.8339C2.93389 27.7411 2.97047 27.653 3.02584 27.5771C3.08122 27.5011 3.15381 27.4393 3.23767 27.3968C3.32153 27.3543 3.41427 27.3323 3.50828 27.3325L4.7968 27.333C4.90664 27.3313 5.01468 27.3609 5.10826 27.4184C5.20185 27.4759 5.27709 27.559 5.32517 27.6577C5.6781 28.4128 6.28516 29.0199 7.04025 29.3728C7.13902 29.4209 7.22203 29.4961 7.27955 29.5897C7.33707 29.6833 7.36672 29.7913 7.36501 29.9012V29.9012Z" fill="#C5C5FF"/>
<path d="M14.1702 28.1121C13.8736 28.9537 13.3922 29.7181 12.7612 30.349C12.1302 30.98 11.3658 31.4615 10.5243 31.758C10.4348 31.7871 10.3398 31.7945 10.247 31.7797C10.1541 31.7649 10.0661 31.7284 9.99011 31.673C9.91413 31.6176 9.85236 31.545 9.80985 31.4612C9.76735 31.3773 9.74532 31.2846 9.74558 31.1906L9.746 29.902C9.7443 29.7922 9.77394 29.6842 9.83146 29.5906C9.88898 29.497 9.97199 29.4217 10.0708 29.3737C10.8259 29.0207 11.4329 28.4137 11.7858 27.6586C11.8339 27.5598 11.9092 27.4768 12.0027 27.4193C12.0963 27.3618 12.2044 27.3321 12.3142 27.3338L13.6027 27.3334C13.6967 27.3331 13.7895 27.3552 13.8733 27.3977C13.9572 27.4402 14.0298 27.502 14.0852 27.5779C14.1405 27.6539 14.1771 27.7419 14.1919 27.8348C14.2067 27.9276 14.1993 28.0227 14.1702 28.1121Z" fill="#C5C5FF"/>
<path d="M13.6019 24.9532L12.3138 24.9532C12.2039 24.9548 12.0957 24.9251 12.0021 24.8675C11.9085 24.8099 11.8332 24.7269 11.785 24.628C11.4321 23.8729 10.825 23.2659 10.0699 22.913C9.97114 22.8649 9.88813 22.7896 9.83061 22.696C9.77309 22.6025 9.74344 22.4944 9.74515 22.3846L9.74473 21.0961C9.74447 21.002 9.76649 20.9093 9.80899 20.8255C9.8515 20.7416 9.91327 20.669 9.98925 20.6136C10.0652 20.5583 10.1533 20.5217 10.2461 20.5069C10.3389 20.4921 10.434 20.4995 10.5234 20.5286C11.365 20.8252 12.1294 21.3066 12.7603 21.9376C13.3913 22.5686 13.8728 23.333 14.1694 24.1745C14.1984 24.264 14.2058 24.359 14.191 24.4518C14.1763 24.5447 14.1397 24.6327 14.0843 24.7087C14.0289 24.7847 13.9563 24.8464 13.8725 24.8889C13.7886 24.9314 13.6959 24.9535 13.6019 24.9532Z" fill="#C5C5FF"/>
<path d="M7.36543 21.0961L7.365 22.3846C7.36671 22.4944 7.33706 22.6025 7.27954 22.6961C7.22202 22.7896 7.13901 22.8649 7.04025 22.913C6.28515 23.2659 5.6781 23.873 5.32516 24.628C5.27708 24.7268 5.20184 24.8098 5.10826 24.8673C5.01468 24.9249 4.90663 24.9545 4.7968 24.9528L3.50828 24.9532C3.41426 24.9535 3.32152 24.9315 3.23767 24.889C3.15381 24.8465 3.08121 24.7847 3.02584 24.7087C2.97047 24.6327 2.93389 24.5447 2.91911 24.4519C2.90432 24.359 2.91176 24.264 2.94079 24.1746C3.23738 23.333 3.71886 22.5686 4.34982 21.9376C4.98079 21.3067 5.74518 20.8252 6.58676 20.5286C6.67618 20.4996 6.77121 20.4921 6.86406 20.5069C6.9569 20.5217 7.04493 20.5583 7.1209 20.6136C7.19688 20.669 7.25866 20.7416 7.30116 20.8255C7.34366 20.9093 7.36569 21.0021 7.36543 21.0961V21.0961Z" fill="#C5C5FF"/>
<path d="M9.39684 26.9842C9.8615 26.5195 9.8615 25.7661 9.39684 25.3015C8.93218 24.8368 8.17881 24.8368 7.71415 25.3015C7.24949 25.7661 7.24949 26.5195 7.71415 26.9842C8.17881 27.4488 8.93218 27.4488 9.39684 26.9842Z" fill="#4FBA6F"/>
<path d="M4.38779 10.6738L3.19795 10.6738C2.86938 10.6738 2.60303 10.9402 2.60303 11.2687L2.60303 12.4586C2.60303 12.7872 2.86938 13.0535 3.19795 13.0535L4.38779 13.0535C4.71635 13.0535 4.98271 12.7872 4.98271 12.4586L4.98271 11.2687C4.98271 10.9402 4.71635 10.6738 4.38779 10.6738Z" fill="#C5C5FF"/>
<path d="M9.14682 10.6735L7.95698 10.6735C7.62842 10.6735 7.36206 10.9398 7.36206 11.2684L7.36206 12.4582C7.36206 12.7868 7.62842 13.0531 7.95698 13.0531L9.14682 13.0531C9.47539 13.0531 9.74174 12.7868 9.74174 12.4582L9.74174 11.2684C9.74174 10.9398 9.47539 10.6735 9.14682 10.6735Z" fill="#C5C5FF"/>
<path d="M13.9051 10.673L12.7152 10.673C12.3867 10.673 12.1203 10.9393 12.1203 11.2679L12.1203 12.4577C12.1203 12.7863 12.3867 13.0527 12.7152 13.0527L13.9051 13.0527C14.2336 13.0527 14.5 12.7863 14.5 12.4577L14.5 11.2679C14.5 10.9393 14.2336 10.673 13.9051 10.673Z" fill="#C5C5FF"/>
<path d="M4.38819 15.433L3.19835 15.433C2.86978 15.433 2.60342 15.6993 2.60342 16.0279L2.60342 17.2177C2.60342 17.5463 2.86978 17.8127 3.19835 17.8127L4.38819 17.8127C4.71675 17.8127 4.98311 17.5463 4.98311 17.2177L4.98311 16.0279C4.98311 15.6993 4.71675 15.433 4.38819 15.433Z" fill="#C5C5FF"/>
<path d="M9.14682 15.4321L7.95698 15.4321C7.62842 15.4321 7.36206 15.6985 7.36206 16.027L7.36206 17.2169C7.36206 17.5455 7.62841 17.8118 7.95698 17.8118L9.14682 17.8118C9.47539 17.8118 9.74174 17.5455 9.74174 17.2169L9.74174 16.027C9.74174 15.6985 9.47539 15.4321 9.14682 15.4321Z" fill="#C5C5FF"/>
<path d="M13.9059 15.4316L12.716 15.4316C12.3875 15.4316 12.1211 15.698 12.1211 16.0266L12.1211 17.2164C12.1211 17.545 12.3875 17.8113 12.716 17.8113L13.9059 17.8113C14.2345 17.8113 14.5008 17.545 14.5008 17.2164L14.5008 16.0266C14.5008 15.698 14.2345 15.4316 13.9059 15.4316Z" fill="#C5C5FF"/>
<path d="M4.39035 33.873L3.20051 33.873C2.87195 33.873 2.60559 34.1394 2.60559 34.468L2.60559 35.6578C2.60559 35.9864 2.87195 36.2527 3.20051 36.2527L4.39035 36.2527C4.71892 36.2527 4.98527 35.9864 4.98527 35.6578L4.98527 34.468C4.98527 34.1394 4.71892 33.873 4.39035 33.873Z" fill="#C5C5FF"/>
<path d="M9.14899 33.873L7.95915 33.873C7.63058 33.873 7.36423 34.1394 7.36423 34.468L7.36422 35.6578C7.36422 35.9864 7.63058 36.2527 7.95914 36.2527L9.14898 36.2527C9.47755 36.2527 9.7439 35.9864 9.7439 35.6578L9.74391 34.468C9.74391 34.1394 9.47755 33.873 9.14899 33.873Z" fill="#C5C5FF"/>
<path d="M13.9081 33.8727L12.7182 33.8727C12.3896 33.8727 12.1233 34.139 12.1233 34.4676L12.1233 35.6574C12.1233 35.986 12.3896 36.2524 12.7182 36.2524L13.9081 36.2524C14.2366 36.2524 14.503 35.986 14.503 35.6574L14.503 34.4676C14.503 34.139 14.2366 33.8727 13.9081 33.8727Z" fill="#C5C5FF"/>
<path d="M11.9205 8.62138C12.3851 8.15671 12.3851 7.40335 11.9205 6.93869C11.4558 6.47402 10.7024 6.47402 10.2378 6.93868C9.77311 7.40335 9.77311 8.15671 10.2378 8.62138C10.7024 9.08604 11.4558 9.08604 11.9205 8.62138Z" fill="#E64C3C"/>
</svg>
