<svg width="117" height="123" viewBox="0 0 117 123" fill="none" xmlns="http://www.w3.org/2000/svg">
<path d="M31.872 99.768C26.368 99.768 21.408 98.648 16.992 96.408C12.64 94.104 9.216 90.936 6.72 86.904C4.288 82.872 3.072 78.296 3.072 73.176C3.072 68.056 4.288 63.48 6.72 59.448C9.216 55.416 12.64 52.28 16.992 50.04C21.408 47.736 26.368 46.584 31.872 46.584C37.312 46.584 42.048 47.736 46.08 50.04C50.176 52.28 53.152 55.512 55.008 59.736L43.392 65.976C40.704 61.24 36.832 58.872 31.776 58.872C27.872 58.872 24.64 60.152 22.08 62.712C19.52 65.272 18.24 68.76 18.24 73.176C18.24 77.592 19.52 81.08 22.08 83.64C24.64 86.2 27.872 87.48 31.776 87.48C36.896 87.48 40.768 85.112 43.392 80.376L55.008 86.712C53.152 90.808 50.176 94.008 46.08 96.312C42.048 98.616 37.312 99.768 31.872 99.768ZM87.9345 99.768C82.4305 99.768 77.4705 98.648 73.0545 96.408C68.7025 94.104 65.2785 90.936 62.7825 86.904C60.3505 82.872 59.1345 78.296 59.1345 73.176C59.1345 68.056 60.3505 63.48 62.7825 59.448C65.2785 55.416 68.7025 52.28 73.0545 50.04C77.4705 47.736 82.4305 46.584 87.9345 46.584C93.3745 46.584 98.1105 47.736 102.143 50.04C106.239 52.28 109.215 55.512 111.071 59.736L99.4545 65.976C96.7665 61.24 92.8945 58.872 87.8385 58.872C83.9345 58.872 80.7025 60.152 78.1425 62.712C75.5825 65.272 74.3025 68.76 74.3025 73.176C74.3025 77.592 75.5825 81.08 78.1425 83.64C80.7025 86.2 83.9345 87.48 87.8385 87.48C92.9585 87.48 96.8305 85.112 99.4545 80.376L111.071 86.712C109.215 90.808 106.239 94.008 102.143 96.312C98.1105 98.616 93.3745 99.768 87.9345 99.768Z" fill="#AEAEAE"/>
<path d="M35.872 93.768C30.368 93.768 25.408 92.648 20.992 90.408C16.64 88.104 13.216 84.936 10.72 80.904C8.288 76.872 7.072 72.296 7.072 67.176C7.072 62.056 8.288 57.48 10.72 53.448C13.216 49.416 16.64 46.28 20.992 44.04C25.408 41.736 30.368 40.584 35.872 40.584C41.312 40.584 46.048 41.736 50.08 44.04C54.176 46.28 57.152 49.512 59.008 53.736L47.392 59.976C44.704 55.24 40.832 52.872 35.776 52.872C31.872 52.872 28.64 54.152 26.08 56.712C23.52 59.272 22.24 62.76 22.24 67.176C22.24 71.592 23.52 75.08 26.08 77.64C28.64 80.2 31.872 81.48 35.776 81.48C40.896 81.48 44.768 79.112 47.392 74.376L59.008 80.712C57.152 84.808 54.176 88.008 50.08 90.312C46.048 92.616 41.312 93.768 35.872 93.768ZM91.9345 93.768C86.4305 93.768 81.4705 92.648 77.0545 90.408C72.7025 88.104 69.2785 84.936 66.7825 80.904C64.3505 76.872 63.1345 72.296 63.1345 67.176C63.1345 62.056 64.3505 57.48 66.7825 53.448C69.2785 49.416 72.7025 46.28 77.0545 44.04C81.4705 41.736 86.4305 40.584 91.9345 40.584C97.3745 40.584 102.111 41.736 106.143 44.04C110.239 46.28 113.215 49.512 115.071 53.736L103.455 59.976C100.767 55.24 96.8945 52.872 91.8385 52.872C87.9345 52.872 84.7025 54.152 82.1425 56.712C79.5825 59.272 78.3025 62.76 78.3025 67.176C78.3025 71.592 79.5825 75.08 82.1425 77.64C84.7025 80.2 87.9345 81.48 91.8385 81.48C96.9585 81.48 100.831 79.112 103.455 74.376L115.071 80.712C113.215 84.808 110.239 88.008 106.143 90.312C102.111 92.616 97.3745 93.768 91.9345 93.768Z" fill="white"/>
</svg>
